<svg xmlns="http://www.w3.org/2000/svg" viewBox="0 0 32 32">
  <defs>
    <style>
      .sun { animation: rotate 4s linear infinite; }
      .cloud { animation: float 3s ease-in-out infinite; }
      .bg { animation: colorShift 6s ease-in-out infinite; }
      
      @keyframes rotate {
        from { transform: rotate(0deg); }
        to { transform: rotate(360deg); }
      }
      
      @keyframes float {
        0%, 100% { transform: translateY(0px); }
        50% { transform: translateY(-2px); }
      }
      
      @keyframes colorShift {
        0%, 100% { fill: #4FC3F7; }
        33% { fill: #FFB74D; }
        66% { fill: #81C784; }
      }
    </style>
  </defs>
  
  <!-- Animated background -->
  <rect class="bg" width="32" height="32" rx="6"/>
  
  <!-- Sun rays (rotating) -->
  <g class="sun" transform-origin="16 16">
    <path d="M16 4 L16 8 M16 24 L16 28 M28 16 L24 16 M8 16 L4 16 M25.66 6.34 L23.54 8.46 M8.46 23.54 L6.34 25.66 M25.66 25.66 L23.54 23.54 M8.46 8.46 L6.34 6.34" 
          stroke="#FFD54F" stroke-width="1.5" stroke-linecap="round"/>
  </g>
  
  <!-- Sun circle -->
  <circle cx="16" cy="16" r="6" fill="#FFF59D" stroke="#FFB74D" stroke-width="1"/>
  
  <!-- Floating cloud -->
  <g class="cloud">
    <path d="M22 18 C24 18 25 19 25 21 C25 23 24 24 22 24 L12 24 C10 24 9 23 9 21 C9 19 10 18 12 18 C12 16 14 15 16 15 C18 15 20 16 20 18 Z" 
          fill="white" opacity="0.9" stroke="#E0E0E0" stroke-width="0.5"/>
  </g>
</svg>
